<?xml version="1.0" encoding="utf-8"?>
<!-- Generator: Adobe Illustrator 16.0.4, SVG Export Plug-In . SVG Version: 6.00 Build 0)  -->
<!DOCTYPE svg PUBLIC "-//W3C//DTD SVG 1.1//EN" "http://www.w3.org/Graphics/SVG/1.1/DTD/svg11.dtd">
<svg version="1.1" id="Layer_1" xmlns="http://www.w3.org/2000/svg" xmlns:xlink="http://www.w3.org/1999/xlink" x="0px" y="0px"
	 width="595.2px" height="595.3px" viewBox="0 123.3 595.2 595.3" enable-background="new 0 123.3 595.2 595.3"
	 xml:space="preserve">
<title>Dribbble icon</title>
<path fill="#F23557" d="M297.6,718.6C133.6,718.6,0,585,0,420.9c0-164.1,133.6-297.6,297.6-297.6s297.6,133.6,297.6,297.6
	C595.3,585,461.7,718.6,297.6,718.6z M548.7,461.7c-8.7-2.7-78.6-23.6-158.3-10.9c33.2,91.4,46.8,165.8,49.4,181.3
	C496.8,593.5,537.3,532.4,548.7,461.7L548.7,461.7L548.7,461.7z M397,655.3c-3.8-22.3-18.6-100-54.3-192.7l-1.6,0.5
	c-143.6,50-195,149.4-199.4,158.7c42.9,33.7,97.2,53.7,156,53.7c35.2,0,68.7-7.2,99.2-20.2H397z M108.8,591.3
	c5.8-9.9,75.5-125.4,206.7-167.8c3.3-1.1,6.7-2.1,10-3c-6.4-14.5-13.4-28.9-20.6-43.2c-127,37.9-250.1,36.3-261.3,36.1l-0.1,7.7
	C43.5,486.6,68.2,546.2,108.8,591.3L108.8,591.3z M48.7,369.2c11.4,0.2,116.2,0.6,235.1-31c-42.1-74.9-87.6-137.9-94.3-147
	c-71.1,33.5-124.3,99-140.8,177.8V369.2z M238.1,174.2c7,9.4,53.2,72.3,94.8,148.8c90.4-33.9,128.7-85.3,133.3-91.8
	c-44.9-39.9-103.9-64.1-168.5-64.1C277.2,167.1,257.2,169.5,238.1,174.2L238.1,174.2L238.1,174.2z M494.5,260.6
	c-5.4,7.2-48,61.8-142,100.2c6,12.2,11.7,24.4,16.9,36.9c2,4.5,3.7,8.9,5.5,13.1c84.6-10.7,168.7,6.4,177.1,8.2
	c-0.5-60-21.8-115.1-57.3-158.2L494.5,260.6z"/>
</svg>
