<?xml version="1.0" encoding="utf-8"?>
<!-- Generator: Adobe Illustrator 16.0.4, SVG Export Plug-In . SVG Version: 6.00 Build 0)  -->
<!DOCTYPE svg PUBLIC "-//W3C//DTD SVG 1.1//EN" "http://www.w3.org/Graphics/SVG/1.1/DTD/svg11.dtd">
<svg version="1.1" id="Layer_1" xmlns="http://www.w3.org/2000/svg" xmlns:xlink="http://www.w3.org/1999/xlink" x="0px" y="0px"
	 width="595.27px" height="595.29px" viewBox="0 0 595.27 595.29" enable-background="new 0 0 595.27 595.29" xml:space="preserve">
<title>Git icon</title>
<title>Git icon</title>
<path fill="#F23557" d="M297.46,7.51C133.2,7.51,0,140.69,0,305.01c0,131.42,85.23,242.92,203.45,282.26
	c14.87,2.73,20.3-6.46,20.3-14.34c0-7.06-0.26-25.77-0.4-50.6c-82.75,17.98-100.21-39.88-100.21-39.88
	c-13.53-34.37-33.03-43.51-33.03-43.51c-27.01-18.46,2.04-18.08,2.04-18.08c29.85,2.1,45.57,30.66,45.57,30.66
	c26.54,45.46,69.62,32.33,86.58,24.72c2.7-19.23,10.39-32.33,18.89-39.77c-66.06-7.51-135.5-33.03-135.5-147.02
	c0-32.48,11.59-59.03,30.62-79.82c-3.06-7.53-13.27-37.77,2.92-78.73c0,0,24.98-8,81.8,30.5c23.73-6.6,49.18-9.9,74.47-10.01
	c25.27,0.12,50.7,3.42,74.48,10.01c56.8-38.5,81.73-30.5,81.73-30.5c16.23,40.96,6.01,71.2,2.96,78.73
	c19.05,20.79,30.57,47.35,30.57,79.82c0,114.28-69.55,139.43-135.82,146.79c10.68,9.18,20.19,27.34,20.19,55.09
	c0,39.77-0.36,71.85-0.36,81.61c0,7.95,5.35,17.21,20.46,14.3c118.11-39.41,203.25-150.84,203.25-282.22
	C594.95,140.69,461.77,7.51,297.46,7.51z"/>
</svg>
