<?xml version="1.0" encoding="utf-8"?>
<!-- Generator: Adobe Illustrator 16.0.4, SVG Export Plug-In . SVG Version: 6.00 Build 0)  -->
<!DOCTYPE svg PUBLIC "-//W3C//DTD SVG 1.1//EN" "http://www.w3.org/Graphics/SVG/1.1/DTD/svg11.dtd">
<svg version="1.1" id="Layer_1" xmlns="http://www.w3.org/2000/svg" xmlns:xlink="http://www.w3.org/1999/xlink" x="0px" y="0px"
	 width="595.2px" height="483.9px" viewBox="0 179 595.2 483.9" enable-background="new 0 179 595.2 483.9" xml:space="preserve">
<title>Twitter icon</title>
<path fill="#F23557" d="M594.1,236.6c-22,9.6-45.4,16.2-70.1,19.2c25.2-15.2,44.5-39,53.6-67.5c-23.6,13.8-49.7,23.8-77.6,29.4
	c-22.2-23.8-53.9-38.7-89.1-38.7c-67.4,0-122,54.6-122,122c0,9.7,1.1,19,3.2,27.9c-101.4-4.8-191.4-53.5-251.5-127.1
	c-10.6,17.9-16.5,38.7-16.5,61.4c0,42.4,21.6,79.7,54.3,101.6c-20-0.6-38.8-6.2-55.3-15.3v1.5c0,59.2,42,108.5,97.9,119.7
	c-10.2,2.8-21.1,4.2-32.1,4.2c-7.8,0-15.3-0.7-22.7-2.1c15.7,48.4,60.6,83.8,114.2,84.8c-41.7,32.7-94.5,52.2-151.4,52.2
	c-9.7,0-19.3-0.6-29-1.7c54.3,34.6,118.3,54.8,187.4,54.8C412,662.9,534.6,477,534.6,316c0-5.2,0-10.4-0.4-15.6
	c23.8-17.1,44.6-38.7,61-63.2L594.1,236.6L594.1,236.6z"/>
</svg>
